<?xml version="1.0" encoding="iso-8859-1"?>
<!-- Generator: Adobe Illustrator 17.0.0, SVG Export Plug-In . SVG Version: 6.00 Build 0)  -->
<!DOCTYPE svg PUBLIC "-//W3C//DTD SVG 1.1//EN" "http://www.w3.org/Graphics/SVG/1.1/DTD/svg11.dtd">
<svg version="1.1" id="Capa_1" xmlns="http://www.w3.org/2000/svg" xmlns:xlink="http://www.w3.org/1999/xlink" x="0px" y="0px"
	 width="64px" height="64px" viewBox="0 0 64 64" style="enable-background:new 0 0 64 64;" xml:space="preserve">
<g>
	<path d="M52.902,33.748c0-2.748-2.249-5.234-5.879-7.03c0.088,1.849,0.237,3.891,0.474,6.19l0.021,0.21l-0.091,0.19
		c-0.094,0.196-2.443,4.815-14.608,4.815c-0.414,0-0.75-0.336-0.75-0.75c0-0.022,0.011-0.041,0.013-0.063
		c0.033-0.379,0.339-0.679,0.726-0.685c0.004,0,0.008-0.002,0.012-0.002c0.548,0,1.067-0.013,1.573-0.031
		c8.535-0.31,11.085-3.098,11.586-3.788c-0.256-2.529-0.411-4.77-0.49-6.768c-0.349-8.826,0.804-12.837,1.484-15.197
		c0.601-2.086,0.693-2.407-0.751-3.852c-2.747-2.747-8.654-3.535-11.828-3.761c-0.527-0.038-0.977-0.059-1.326-0.072
		c-0.457-0.017-0.738-0.018-0.784-0.019l0,0.005c-3.482-0.03-10.349,0.318-13.348,3.317c-3.689,3.689,1.258,2.761,0.491,20.013
		C15.483,28.284,13,30.869,13,33.748c0,5.478,8.932,9.919,19.951,9.919C43.969,43.668,52.902,39.227,52.902,33.748z M19.992,10.481
		c0.176-0.375,0.622-0.537,0.998-0.36c0.027,0.013,0.664,0.304,1.759,0.679c1.988,0.682,5.498,1.64,9.68,1.734
		c0.64,0.014,1.295,0.008,1.963-0.023c2.597-0.119,5.381-0.611,8.179-1.711c0.524-0.206,1.048-0.426,1.571-0.677
		c0.374-0.182,0.822-0.021,1,0.353c0.179,0.374,0.021,0.821-0.353,1c-3.569,1.709-7.136,2.421-10.398,2.572
		c-0.466,0.022-0.925,0.032-1.378,0.032c-0.19,0-0.374-0.008-0.561-0.012c-6.736-0.126-11.779-2.438-12.102-2.59
		C19.977,11.302,19.816,10.856,19.992,10.481z"/>
	<path d="M18.065,47.94c-0.02,0.172-0.03,0.337-0.036,0.5c-0.597,0.18-1.123,0.694-1.11,1.475c0.03,1.866,0.814,3.11,2.052,3.64
		c0.922,2.222,3.081,2.803,5.475,1.561c1.437-0.745,2.725-1.732,4.03-2.682c0.451-0.328,1.9-1.601,2.885-1.971
		c0.142-0.012,0.279-0.046,0.409-0.098c0.063-0.004,0.115,0.01,0.17,0.02c0.19,0.089,0.402,0.134,0.628,0.127
		c0.226,0.008,0.438-0.037,0.628-0.127c0.055-0.009,0.107-0.024,0.17-0.02c0.13,0.052,0.267,0.086,0.409,0.098
		c0.985,0.37,2.435,1.643,2.885,1.971c1.305,0.951,2.593,1.937,4.03,2.682c2.394,1.242,4.553,0.662,5.475-1.561
		c1.237-0.529,2.022-1.774,2.052-3.64c0.013-0.781-0.513-1.295-1.11-1.475c-0.006-0.163-0.016-0.328-0.036-0.5
		c-0.208-1.771-3.011-1.792-2.801,0c0.172,1.464-0.048,1.865-1.561,1.546c-1.458-0.307-2.858-0.806-4.271-1.271
		c-1.787-0.588-4.059-1.459-5.871-0.674c-1.812-0.786-4.084,0.086-5.871,0.674c-1.413,0.465-2.812,0.964-4.271,1.271
		c-1.513,0.319-1.733-0.082-1.561-1.546C21.077,46.149,18.274,46.169,18.065,47.94z"/>
</g>
</svg>
